<svg width="64" height="64" viewBox="0 0 64 64" fill="none" xmlns="http://www.w3.org/2000/svg">
  <!-- Background -->
  <rect width="64" height="64" fill="#0a0a0a"/>

  <!-- Accent border -->
  <rect x="2" y="2" width="60" height="60" fill="none" stroke="#00ff88" stroke-width="2"/>

  <!-- S -->
  <path d="M18 22 L18 18 L28 18 L28 22 L22 22 L22 28 L28 28 L28 32 L22 32 L22 38 L28 38 L28 42 L18 42 L18 38 L24 38 L24 32 L18 32 L18 28 L24 28 L24 22 L18 22 Z" fill="#00ff88"/>

  <!-- J -->
  <path d="M36 18 L46 18 L46 38 L40 38 L40 42 L36 42 L36 38 L42 38 L42 22 L36 22 L36 18 Z" fill="#ffffff"/>
</svg>
